HIERARCHY
ROOT Hips
{
  OFFSET 265.287 66.7526 -254.649
  CHANNELS 6 Xposition Yposition Zposition Zrotation Xrotation Yrotation
  JOINT LeftUpLeg
  {
    OFFSET 8.64259 1.95398 -2.38835
    CHANNELS 3 Zrotation Xrotation Yrotation
    JOINT LeftLeg
    {
      OFFSET 43.7702 0 0
      CHANNELS 3 Zrotation Xrotation Yrotation
      JOINT LeftFoot
      {
        OFFSET 40.6238 0 0
        CHANNELS 3 Zrotation Xrotation Yrotation
        JOINT LeftToeBase
        {
          OFFSET 12.7242 0 0
          CHANNELS 3 Zrotation Xrotation Yrotation
          End Site
          {
            OFFSET 0 0 0
          }
        }
      }
    }
  }
  JOINT RightUpLeg
  {
    OFFSET -8.2249 1.95398 -2.59336
    CHANNELS 3 Zrotation Xrotation Yrotation
    JOINT RightLeg
    {
      OFFSET 43.5653 0 0
      CHANNELS 3 Zrotation Xrotation Yrotation
      JOINT RightFoot
      {
        OFFSET 40.6238 0 0
        CHANNELS 3 Zrotation Xrotation Yrotation
        JOINT RightToeBase
        {
          OFFSET 12.7242 0 0
          CHANNELS 3 Zrotation Xrotation Yrotation
          End Site
          {
            OFFSET 0 0 0
          }
        }
      }
    }
  }
  JOINT Spine
  {
    OFFSET 0.165834 0.87714 6.61349
    CHANNELS 3 Zrotation Xrotation Yrotation
    JOINT Spine1
    {
      OFFSET 7.38963 1.71661e-005 0
      CHANNELS 3 Zrotation Xrotation Yrotation
      JOINT Spine2
      {
        OFFSET 11.9445 1.14441e-005 0
        CHANNELS 3 Zrotation Xrotation Yrotation
        JOINT Spine3
        {
          OFFSET 14.7254 4.19617e-005 0
          CHANNELS 3 Zrotation Xrotation Yrotation
          JOINT Spine4
          {
            OFFSET 10.9679 0 0
            CHANNELS 3 Zrotation Xrotation Yrotation
            JOINT RightShoulder
            {
              OFFSET 2.46616 -1.6653 3.69651
              CHANNELS 3 Zrotation Xrotation Yrotation
              JOINT RightArm
              {
                OFFSET 13.0012 0 0
                CHANNELS 3 Zrotation Xrotation Yrotation
                JOINT RightForeArm
                {
                  OFFSET 28.7848 1.52588e-005 0
                  CHANNELS 3 Zrotation Xrotation Yrotation
                  JOINT RightHand
                  {
                    OFFSET 26.5688 1.52588e-005 0
                    CHANNELS 3 Zrotation Xrotation Yrotation
                    End Site
                    {
                      OFFSET 0 0 0
                    }
                  }
                }
              }
            }
            JOINT LeftShoulder
            {
              OFFSET 2.38034 -1.29275 -3.7523
              CHANNELS 3 Zrotation Xrotation Yrotation
              JOINT LeftArm
              {
                OFFSET 16.3182 6.10351e-005 0
                CHANNELS 3 Zrotation Xrotation Yrotation
                JOINT LeftForeArm
                {
                  OFFSET 27.0901 0 0
                  CHANNELS 3 Zrotation Xrotation Yrotation
                  JOINT LeftHand
                  {
                    OFFSET 24.5451 1.52588e-005 0
                    CHANNELS 3 Zrotation Xrotation Yrotation
                    End Site
                    {
                      OFFSET 0 0 0
                    }
                  }
                }
              }
            }
            JOINT Neck
            {
              OFFSET 5.0226 -0.0266342 0
              CHANNELS 3 Zrotation Xrotation Yrotation
              JOINT Head
              {
                OFFSET 6.69364 2.86102e-005 0
                CHANNELS 3 Zrotation Xrotation Yrotation
                End Site
                {
                  OFFSET 0 0 0
                }
              }
            }
          }
        }
      }
    }
  }
}
MOTION
Frames:	7
Frame Time:	0.0416667
-298.582 85.2379 282.37 104.881 40.1709 91.2211 -178.439 18.0083 101.93 95.2525 -42.008 -179.402 26.0091 30.758 -149.171 43.5517 -28.1926 -132.975 121.742 -28.6757 55.5024 -1.19387 2.19392 27.2385 67.644 4.0895 -73.3078 68.8358 -58.6568 -116.18 0.212788 4.06149 -92.8387 18.6906 -1.08156 -5.5581 7.00848 -1.32479 -5.50534 -15.4317 0.636035 -5.6263 4.58091 0.636017 -5.6263 114.451 -4.60309 -41.0039 90.7055 -17.9288 -27.1765 -175.664 9.8138 -171.942 12.5024 -7.20302 -62.2859 -57.7661 -28.0062 136.416 -77.6586 46.6528 88.4494 -19.9547 -16.7535 -151.412 43.4459 -3.22179 -11.7711 -94.8702 -38.4056 2.0416 59.3023 -31.7671 9.38713 
-298.839 85.2914 282.642 104.585 40.2477 91.208 -178.489 17.9707 101.582 94.9967 -42.1447 -179.374 25.6049 30.7612 -149.259 43.5456 -28.0568 -132.928 121.976 -28.7413 55.0373 1.0157 -1.98256 28.614 68.1583 5.74544 -76.0749 69.9217 -60.0888 -115.735 0.222676 4.04873 -92.8089 18.7179 -1.04724 -5.50442 7.03596 -1.2881 -5.45324 -15.4061 0.652737 -5.56483 4.60651 0.652754 -5.56482 114.576 -4.81602 -40.8421 90.6142 -18.1555 -27.4525 -175.456 6.55598 -172.56 12.6095 -7.10503 -61.2287 -58.0317 -27.5724 136.162 -78.1766 47.0154 88.7504 -19.962 -16.8353 -151.949 44.0984 -3.06278 -11.2868 -94.6023 -38.1247 1.92896 59.0861 -31.4734 9.63201 
-299.596 85.3762 283.434 103.725 40.4662 91.1747 -178.638 17.9068 100.576 94.1675 -42.7081 -179.287 24.2403 30.7349 -149.397 43.4993 -27.6183 -132.897 122.627 -28.9147 54.1889 9.95569 -15.8127 32.9877 69.8335 11.3045 -86.4338 76.6036 -65.0184 -110.333 0.251191 4.01157 -92.7226 18.7972 -0.947685 -5.34894 7.11578 -1.18186 -5.30225 -15.3317 0.701207 -5.38668 4.68099 0.701206 -5.38668 114.939 -5.42648 -40.3799 90.3447 -18.8042 -28.2537 -175.242 -2.61768 -174.318 12.615 -6.66301 -58.1888 -58.7809 -26.3323 135.434 -79.4211 48.0808 89.4234 -20.0081 -16.9786 -153.449 45.9348 -2.55864 -9.86975 -93.8183 -37.2917 1.60338 58.4126 -30.5958 10.3533 
-300.835 85.3821 284.71 102.332 40.8013 91.1355 -178.881 17.8483 98.9673 92.7306 -42.5874 -179.155 21.7768 32.1007 -149.815 43.3272 -26.7502 -133.219 123.758 -28.8212 53.8015 30.0281 -36.2439 44.4437 72.7857 19.5867 -106.337 87.6977 -69.6934 -100.199 0.296574 3.95138 -92.5845 18.925 -0.788504 -5.10043 7.24444 -1.01194 -5.06094 -15.2113 0.778692 -5.10193 4.80135 0.778694 -5.10194 115.516 -6.38458 -39.66 89.9015 -19.8179 -29.544 -175.957 -15.7232 -177.409 11.8476 -5.68519 -53.7603 -59.9176 -24.4022 134.301 -80.4998 49.8543 89.767 -20.1717 -16.8853 -155.655 48.6964 -1.61419 -7.55643 -92.5387 -35.897 1.08537 57.1744 -29.1028 11.5576 
-302.528 85.2533 286.431 100.438 41.2196 91.1117 -179.201 17.7298 96.8144 90.8837 -43.2104 -178.958 17.0582 34.3379 -149.158 42.8911 -25.2167 -134.528 125.542 -27.7179 53.4999 57.5162 -47.8797 64.8036 78.7304 31.2535 -129.046 68.5432 -64.5907 -121.559 0.357366 3.86939 -92.3998 19.0984 -0.575337 -4.76885 7.41893 -0.784413 -4.73902 -15.0474 0.882829 -4.72171 4.96529 0.882816 -4.72171 116.284 -7.6353 -38.7301 89.2871 -21.134 -31.2942 -177.424 -29.2178 179.998 10.1629 -4.39519 -49.0953 -61.3248 -21.9273 132.849 -79.8643 52.3877 88.4698 -20.5966 -16.0784 -158.191 52.0375 -0.0894081 -4.36768 -90.7649 -33.9005 0.391229 55.1677 -26.9191 13.3199 
-304.647 84.9585 288.562 98.0721 41.6817 91.1316 -179.592 17.4322 94.1748 88.9029 -44.8252 -178.691 8.34656 38.277 -145.856 42.0717 -22.847 -137.811 127.595 -25.8092 52.3596 75.887 -47.4173 79.5997 88.161 37.3515 -147.047 48.6832 -41.5912 -141.684 0.432118 3.76659 -92.1747 19.3143 -0.31377 -4.36604 7.63616 -0.505437 -4.34806 -14.8422 1.01168 -4.25899 5.17046 1.01167 -4.25899 117.219 -9.1238 -37.6394 88.5014 -22.6889 -33.4813 -177.422 -40.5634 179.998 8.2433 -3.25559 -45.0795 -62.8801 -19.0736 131.165 -75.1851 55.5643 83.3836 -21.4864 -14.0031 -160.546 55.5443 2.14553 -0.332616 -88.476 -31.2899 -0.486443 52.1631 -23.968 15.8791 
-307.292 84.0008 291.122 95.2733 42.1424 91.23 -179.976 17.0533 91.0268 86.3506 -48.911 -178.3 -8.0442 43.2155 -137.132 40.838 -20.6287 -144.361 129.441 -23.2847 51.7476 98.7683 -44.599 96.2749 132.02 57.504 169.218 171.738 -77.1701 -38.8109 0.51937 3.64424 -91.9169 19.5693 -0.0102783 -3.90669 7.89248 -0.182068 -3.90248 -14.5986 1.16348 -3.72968 5.41405 1.16349 -3.72969 118.293 -10.796 -36.4375 87.5455 -24.4206 -36.0849 -176.801 -49.4708 179.997 6.75199 -2.48396 -41.9218 -64.4684 -16.0171 129.346 -63.4127 58.4221 71.478 -23.1126 -10.2351 -162.048 58.7516 5.14313 4.47964 -85.9964 -29.5169 -2.19773 51.5585 -20.1136 23.0444 
